<?xml version="1.0" encoding="UTF-8"?>
<svg version="1.1" id="Layer_1" xmlns="http://www.w3.org/2000/svg" xmlns:xlink="http://www.w3.org/1999/xlink" x="0px"
     y="0px" width="200px" height="200px" viewBox="0 0 200 200" style="enable-background:new 0 0 200 200;"
     xml:space="preserve">
<style type="text/css">
	.st0{fill:#a10022;}
	.st1{fill:#FFFFFF;}
</style>
    <rect class="st0" width="200" height="200"/>
    <g>
	<path class="st1"
          d="M40,133.2c0,0-0.5,7.9,6.3,11.6l-0.8-6.1c0,0,13.7-6.6,20.6,2.4l5,0.3c0,0,4.5-10,9.2-10.5   c0,0,6.1-1.3,9.8,14.5c0,0,6.6,1.8,13.2-2.4C103.3,143,71.6,105,40,133.2L40,133.2z M49.8,131.4l-4.7,1.8c0,0,1.6-5.5,8.4-5.3   L49.8,131.4L49.8,131.4z"/>
        <path class="st1"
              d="M72.2,142.7c0,0,8.7-1.8,15.6,3.4c0,0-1.1-14-8.4-12.7C79.3,133.5,78,133,72.2,142.7L72.2,142.7z"/>
        <path class="st1"
              d="M70.3,144c0,0-9.8,14.2,0,16.4l-5.8,4c0,0-4.2-5.3-8.4-5.3c0,0,5.5-5.3,10-15.6L70.3,144L70.3,144z"/>
        <path class="st1"
              d="M73,144.8c0,0-2.4,1.9-2.1,4.2c0,0-7.4,6.3,2.4,10.3c0,0-4.5-7.6,1.8-8.4c0,0,7.6,1.8,7.6,5.8   c0,0-1.1,1.1-2.4,2.1c0,0,4.7,2.4,7.1-5c0,0-6.1-2.6-5.5-7.6C81.9,146.1,76.1,144.3,73,144.8L73,144.8z"/>
        <path class="st1"
              d="M58.7,173c0,0,5.5,0.8,5.5-5.8c0,0-4-2.9-4.5-2.6c0,0-14.8-11.6-19.5,1.6c0,0-1.1,5.5,3.4,6.3   c0,0-3.4-7.6,4.5-6.3c0,0,3.2-6.3,9.2,0.8C57.4,167,65.3,170.7,58.7,173L58.7,173z"/>
        <path class="st1"
              d="M90.1,148.8c0,0,13.2-1.6,13.7-3.2c0,0,10.8,15.8,16.6,11.6c0,0,3.4-0.3-10.5-14c0,0,6.3-1.8,8.7-5   c0,0,5,5.3,30.3,11.3c0,0-17.4,14-42.5,21.1C106.4,170.7,101.7,155.6,90.1,148.8L90.1,148.8z"/>
        <path class="st1" d="M151.8,104.2c0,0,1.1,3.4,9.5,2.6c0,0,0,5-9.8,2.4L151.8,104.2L151.8,104.2z"/>
        <path class="st1"
              d="M152.6,95.3c0,0,5.8,4,17.4,2.1c0,0-9,6.3-7.1,7.1c0,0-10.5,0.3-10.5-3.2L152.6,95.3L152.6,95.3z"/>
        <path class="st1"
              d="M153.6,88.7c0,0,15.6,1.1,23.2-7.6c0,0,0.8,6.3-10.5,12.7c0,0-8.7,2.4-12.9-0.5L153.6,88.7L153.6,88.7z"/>
        <path class="st1"
              d="M154.4,81.3c0,0,18.2-2.4,23.5-13.7c0,0-4.5,9.2-2.9,11.1c0,0-1.6,6.9-20.6,7.9V81.3L154.4,81.3z"/>
        <path class="st1"
              d="M155.5,70.7c0,0,18.7-8.4,19.5-26.6c0,0,5.3,3.4-1.1,10.8c0,0,6.1,8.7-1.1,14.2c0,0-6.1,8.7-17.4,9.5V70.7   L155.5,70.7z"/>
        <path class="st1"
              d="M156.3,60.2c0,0,12.9-10.8,0-24c0,0,14.8-1.6,10.8,9.8c0,0,6.3,5-1.6,13.4c0,0-1.6,6.1-9.2,6.9V60.2   L156.3,60.2z"/>
        <path class="st1"
              d="M83.5,124.5l15.3-14.2c0,0,5.3,16.9,11.1,15.6c0,0-0.3-9.2-6.6-20.8c0,0,9.5-17.1,22.7-24.8   c0,0,0.8,27.4,4.5,22.7c0,0,3.2-10.5,1.1-24c0,0,2.6,3.4,21.1-14c0,0-6.3,44.3-4.5,49.6c0,0-5,3.2-7.6,7.4c0,0-4,4.7-7.1,5.5   c0,0-2.4-7.1-12.7-14.5c0,0,1.8,16.3,4,18.7c0,0-11.9,9-17.4,9.8C107.2,141.4,94.8,127.2,83.5,124.5L83.5,124.5z"/>
        <path class="st1"
              d="M61.6,119.3c0,0-10.8-31.9-33.2-51.9l36.1,4.2l11.6,14.8c0,0-15.6-6.3-16.6-0.5C58.5,91.6,77.4,90,77.4,90   l6.3,13.2c0,0-16.3-2.9-14.5,2.1c1.8,5,15.8,3.4,15.8,3.4s2.6,9.2,2.1,10.8L61.6,119.3L61.6,119.3z"/>
        <path class="st1" d="M60.8,68.6l4.7,1.1c0,0-1.1-11.6,2.4-12.1C67.9,57.5,63.5,57.8,60.8,68.6L60.8,68.6z"/>
        <path class="st1" d="M54.8,67.8c0,0-0.8-10.5,9.2-16.1c0,0-7.6,10.3-4.2,16.3L54.8,67.8L54.8,67.8z"/>
        <path class="st1"
              d="M46.9,67c0,0-3.2-19,11.1-24.8c0,0-5.5,8.2-4.5,11.3l1.8,0.8c0,0-4,9.5-2.9,12.9L46.9,67L46.9,67z"/>
        <path class="st1"
              d="M37.9,66.3c0,0-6.9-25.8,11.3-34.8c0,0-7.4,12.4-3.4,16.6c0,0-5.3,12.7-1.8,18.5L37.9,66.3L37.9,66.3z"/>
        <path class="st1"
              d="M30.2,64.7c0,0-12.7-19,8.7-29.8c0,0-2.9,5.5-5,6.3c0,0-3.4,18.7,1.6,23.7L30.2,64.7L30.2,64.7z"/>
</g>
</svg>